<?xml version="1.0" encoding="utf-8"?>
<!-- Generator: Adobe Illustrator 19.2.1, SVG Export Plug-In . SVG Version: 6.00 Build 0)  -->
<svg version="1.1" id="Untitled-Page_x25_201" xmlns="http://www.w3.org/2000/svg" xmlns:xlink="http://www.w3.org/1999/xlink"
	 x="0px" y="0px" viewBox="0 0 253 260" style="enable-background:new 0 0 253 260;" xml:space="preserve">
<style type="text/css">
	.st0{fill:none;}
	.st1{fill:#AAAAAA;}
	.st2{opacity:0.302;fill:none;enable-background:new    ;}
</style>
<g id="Layer_x25_201">
	<path class="st1" d="M127,219.2c50.3,0,96.3-37,96.6-89.7c4.9-55.8-40.6-106.8-95.4-110.1C65.7,19.4,9.7,66.2,10.2,129.2
		C9.3,199,61.4,255.2,127.2,259.6 M127.5,219v40.7 M39.9,129.8c0-49.4,39.4-89.5,87.4-89.5s86.4,40.1,86.4,89.5
		s-38.9,89.5-86.9,89.5S39.9,179.2,39.9,129.8z"/>
	<path class="st2" d="M127,219.2c50.3,0,95.7-39.3,96.1-89.7c1.5-57.4-40.1-107.3-94.8-110.1C65.7,19.4,9.7,66.2,10.2,129.2
		c-0.4,69.5,51.2,125.9,117.1,130.4 M127,219.5v40.1 M126.8,259.9"/>
</g>
<path class="st0" d="z"/>
</svg>
