<?xml version="1.0" standalone="no"?>
<!-- Generator: Adobe Fireworks 10, Export SVG Extension by Aaron Beall (http://fireworks.abeall.com) . Version: 0.6.1  -->
<!DOCTYPE svg PUBLIC "-//W3C//DTD SVG 1.1//EN" "http://www.w3.org/Graphics/SVG/1.1/DTD/svg11.dtd">
<svg id="Untitled-Page%201" viewBox="0 0 253 260" style="background-color:#ffffff00" version="1.1"
	xmlns="http://www.w3.org/2000/svg" xmlns:xlink="http://www.w3.org/1999/xlink" xml:space="preserve"
	x="0px" y="0px" width="253px" height="260px"
>
	<g id="Layer%201">
		<path d="M 126.9969 219.22 C 177.2606 219.22 223.2975 182.2373 223.6061 129.5593 C 228.5 73.75 183 22.75 128.2311 19.4602 C 65.676 19.4376 9.746 66.206 10.1549 129.2417 C 9.25 199 61.3557 255.1579 127.2437 259.6057 M 127.4905 218.9658 L 127.4905 259.6339 M 39.8609 129.75 C 39.8609 80.3365 79.2556 40.2634 127.2437 40.2634 C 175.2318 40.2634 213.6391 80.3365 213.6391 129.75 C 213.6391 179.1635 174.7381 219.22 126.75 219.22 C 78.7619 219.22 39.8609 179.1635 39.8609 129.75 Z" fill="#aaaaaa"/>
		<path opacity="0.302" d="M 126.9969 219.22 C 177.2606 219.22 222.7106 179.8862 223.0808 129.5593 C 224.5619 72.1156 183 22.25 128.2311 19.4602 C 65.676 19.4376 9.746 66.206 10.1549 129.2417 C 9.746 198.7204 61.3557 255.1579 127.2437 259.6057 M 126.9653 219.5066 L 126.9653 259.6339 M 0.3659 129.75 C 0.3659 57.8758 56.9491 -0.3881 126.75 -0.3881 C 196.5509 -0.3881 253.1342 57.8758 253.1342 129.75 C 253.1342 201.6242 196.5509 259.8881 126.75 259.8881 C 56.9491 259.8881 0.3659 201.6242 0.3659 129.75 Z" fill="#9b9b8c"/>
	</g>
</svg>